<svg width="666" height="196" viewBox="0 0 666 196" fill="none" xmlns="http://www.w3.org/2000/svg">
<g clip-path="url(#clip0_2_9)">
<path d="M51.2 56.3476V44H58.7276V49.199H70.0189V44H77.5465V49.199H88.8378V44H96.3653V56.3476H51.2Z" fill="#3A82F7"/>
<path fill-rule="evenodd" clip-rule="evenodd" d="M30.099 63.2073C30.099 63.2073 29.8762 74.045 30.099 88.1987C30.1186 89.4424 30.1337 90.7064 30.149 91.9864C30.4666 118.543 30.8658 151.927 72.8883 151.927C116.936 151.927 117.565 128.81 117.565 85.0748L117.565 63.2073H30.099ZM110.265 70.5244H37.3154C37.2883 74.9567 37.289 81.1158 37.3987 88.0833C37.4176 89.2874 37.4334 90.4915 37.4492 91.6937C37.6193 104.663 37.7864 117.406 41.8895 127.429C44.0082 132.604 47.0759 136.71 51.6043 139.603C56.1834 142.529 62.8753 144.61 72.8883 144.61C83.3627 144.61 90.497 143.219 95.4292 140.971C100.13 138.828 103.125 135.779 105.227 131.605C107.451 127.19 108.793 121.268 109.508 113.315C110.22 105.384 110.265 96.0779 110.265 85.0748L110.265 70.5244Z" fill="url(#paint0_linear_2_9)"/>
<path d="M58.1131 106.652H44.287C44.287 106.652 44.3734 115.772 47.0522 122.659C49.731 129.545 58.1131 135.921 58.1131 135.921V106.652Z" fill="#F2CB80"/>
<path d="M82.5392 94.3049H65.0262V137.75H82.5392V94.3049Z" fill="url(#paint1_radial_2_9)"/>
<path d="M103.739 82.4146H89.4523V135.921C89.4523 135.921 103.739 132.469 103.739 114.346V82.4146Z" fill="#D8AE5E"/>
<path d="M153.582 128.851H146.437V71.6373H155.391L165.068 107.099L174.745 71.6373H183.699V128.851H176.554V86.9917L168.776 116.421H161.36L153.582 87.0831V128.851Z" fill="white"/>
<path d="M198.86 141.463H193.433V134.883H197.142C199.734 134.883 201.302 133.878 201.845 131.867L202.749 128.12H198.317L189.092 84.2499H197.413L204.106 121.631L210.346 84.2499H218.577L209.261 133.146C207.934 138.691 204.467 141.463 198.86 141.463Z" fill="white"/>
<path d="M261.748 78.3092H245.287V97.1366H258.311V103.626H245.287V128.851H237.057V71.6373H261.748V78.3092Z" fill="white"/>
<path d="M283.276 84.2499H291.416V128.851H283.276V125.286C282.492 127.663 280.623 128.851 277.669 128.851H274.413C268.986 128.851 266.273 126.17 266.273 120.808V84.2499H274.413V119.528C274.413 120.625 274.594 121.356 274.955 121.722C275.317 122.027 276.041 122.179 277.126 122.179H280.292C281.377 122.179 282.131 121.935 282.553 121.448C283.035 120.96 283.276 120.138 283.276 118.98V84.2499Z" fill="white"/>
<path d="M313.144 84.2499H316.309C321.796 84.2499 324.54 86.9613 324.54 92.3841V128.851H316.4V93.5722C316.4 92.4755 316.219 91.7748 315.857 91.4701C315.495 91.1045 314.772 90.9217 313.686 90.9217H310.521C309.436 90.9217 308.652 91.1655 308.169 91.6529C307.747 92.1403 307.536 92.9629 307.536 94.1206V128.851H299.396V84.2499H307.536V87.8143C308.32 85.438 310.189 84.2499 313.144 84.2499Z" fill="white"/>
<path d="M348.89 67.7073H357.03V128.851H348.89V125.286C348.106 127.663 346.237 128.851 343.283 128.851H340.027C334.6 128.851 331.887 126.17 331.887 120.808V92.2927C331.887 86.8699 334.6 84.1585 340.027 84.1585H343.283C346.237 84.1585 348.106 85.3466 348.89 87.7229V67.7073ZM342.74 122.179H345.905C346.991 122.179 347.745 121.935 348.167 121.448C348.649 120.96 348.89 120.138 348.89 118.98V94.0292C348.89 92.8715 348.649 92.049 348.167 91.5615C347.745 91.0741 346.991 90.8303 345.905 90.8303H342.74C341.655 90.8303 340.931 91.0131 340.569 91.3787C340.208 91.7443 340.027 92.445 340.027 93.4808V119.528C340.027 120.625 340.208 121.356 340.569 121.722C340.931 122.027 341.655 122.179 342.74 122.179Z" fill="white"/>
<path d="M373.251 84.2499H382.115C387.782 84.2499 390.616 86.9613 390.616 92.3841V109.109H372.799V119.711C372.799 120.747 372.98 121.448 373.342 121.813C373.703 122.179 374.427 122.362 375.512 122.362H379.673C380.758 122.362 381.482 122.179 381.843 121.813C382.205 121.448 382.386 120.717 382.386 119.62V115.964H390.345V120.808C390.345 126.17 387.541 128.851 381.934 128.851H373.251C367.644 128.851 364.84 126.17 364.84 120.808V92.3841C364.84 86.9613 367.644 84.2499 373.251 84.2499ZM372.799 103.077H382.567V93.3894C382.567 92.3536 382.386 91.6529 382.024 91.2873C381.723 90.9217 381.029 90.7389 379.944 90.7389H375.512C374.427 90.7389 373.703 90.9217 373.342 91.2873C372.98 91.6529 372.799 92.3536 372.799 93.3894V103.077Z" fill="white"/>
<path d="M414.073 67.7073H422.213V128.851H414.073V125.286C413.289 127.663 411.42 128.851 408.465 128.851H405.21C399.783 128.851 397.07 126.17 397.07 120.808V92.2927C397.07 86.8699 399.783 84.1585 405.21 84.1585H408.465C411.42 84.1585 413.289 85.3466 414.073 87.7229V67.7073ZM407.923 122.179H411.088C412.174 122.179 412.927 121.935 413.349 121.448C413.832 120.96 414.073 120.138 414.073 118.98V94.0292C414.073 92.8715 413.832 92.049 413.349 91.5615C412.927 91.0741 412.174 90.8303 411.088 90.8303H407.923C406.837 90.8303 406.114 91.0131 405.752 91.3787C405.39 91.7443 405.21 92.445 405.21 93.4808V119.528C405.21 120.625 405.39 121.356 405.752 121.722C406.114 122.027 406.837 122.179 407.923 122.179Z" fill="white"/>
<path d="M468.69 78.3092H452.23V97.1366H465.253V103.626H452.23V128.851H443.999V71.6373H468.69V78.3092Z" fill="white"/>
<path d="M490.219 84.2499H498.358V128.851H490.219V125.286C489.435 127.663 487.566 128.851 484.611 128.851H481.355C475.929 128.851 473.215 126.17 473.215 120.808V84.2499H481.355V119.528C481.355 120.625 481.536 121.356 481.898 121.722C482.26 122.027 482.983 122.179 484.068 122.179H487.234C488.319 122.179 489.073 121.935 489.495 121.448C489.977 120.96 490.219 120.138 490.219 118.98V84.2499Z" fill="white"/>
<path d="M521.262 90.9217H515.202V119.163C515.202 120.26 515.353 120.991 515.654 121.356C516.016 121.661 516.74 121.813 517.825 121.813H521.262V128.851H515.474C509.806 128.851 506.972 126.17 506.972 120.808V90.9217H502.811V84.2499H506.972V76.6641H515.202V84.2499H521.262V90.9217Z" fill="white"/>
<path d="M543.036 84.2499H551.176V128.851H543.036V125.286C542.252 127.663 540.383 128.851 537.429 128.851H534.173C528.746 128.851 526.033 126.17 526.033 120.808V84.2499H534.173V119.528C534.173 120.625 534.354 121.356 534.715 121.722C535.077 122.027 535.801 122.179 536.886 122.179H540.052C541.137 122.179 541.891 121.935 542.313 121.448C542.795 120.96 543.036 120.138 543.036 118.98V84.2499Z" fill="white"/>
<path d="M574.441 84.1585H576.25V91.2873H572.994C569.196 91.2873 567.296 93.5417 567.296 98.0506V128.851H559.156V84.2499H567.296V89.7336C567.779 88.1494 568.623 86.8394 569.829 85.8036C571.095 84.7069 572.632 84.1585 574.441 84.1585Z" fill="white"/>
<path d="M588.938 84.2499H597.801C603.469 84.2499 606.303 86.9613 606.303 92.3841V109.109H588.485V119.711C588.485 120.747 588.666 121.448 589.028 121.813C589.39 122.179 590.113 122.362 591.199 122.362H595.359C596.444 122.362 597.168 122.179 597.53 121.813C597.892 121.448 598.072 120.717 598.072 119.62V115.964H606.031V120.808C606.031 126.17 603.228 128.851 597.62 128.851H588.938C583.33 128.851 580.526 126.17 580.526 120.808V92.3841C580.526 86.9613 583.33 84.2499 588.938 84.2499ZM588.485 103.077H598.253V93.3894C598.253 92.3536 598.072 91.6529 597.711 91.2873C597.409 90.9217 596.716 90.7389 595.63 90.7389H591.199C590.113 90.7389 589.39 90.9217 589.028 91.2873C588.666 91.6529 588.485 92.3536 588.485 93.3894V103.077Z" fill="white"/>
<path d="M628.041 119.894V112.491C628.041 111.394 627.86 110.694 627.498 110.389C627.137 110.023 626.413 109.841 625.328 109.841H620.715C615.108 109.841 612.304 107.16 612.304 101.798V92.3841C612.304 86.9613 615.108 84.2499 620.715 84.2499H627.317C632.985 84.2499 635.819 86.9613 635.819 92.3841V96.6796H627.86V93.2066C627.86 92.1099 627.679 91.4092 627.317 91.1045C626.956 90.7389 626.232 90.5562 625.147 90.5562H622.976C621.891 90.5562 621.167 90.7389 620.806 91.1045C620.444 91.4092 620.263 92.1099 620.263 93.2066V100.884C620.263 101.981 620.444 102.712 620.806 103.077C621.167 103.382 621.891 103.534 622.976 103.534H627.679C633.226 103.534 636 106.246 636 111.668V120.808C636 126.17 633.196 128.851 627.589 128.851H620.896C615.288 128.851 612.485 126.17 612.485 120.808V116.421H620.444V119.894C620.444 120.991 620.625 121.722 620.986 122.088C621.348 122.392 622.072 122.545 623.157 122.545H625.328C626.413 122.545 627.137 122.392 627.498 122.088C627.86 121.722 628.041 120.991 628.041 119.894Z" fill="white"/>
</g>
<defs>
<linearGradient id="paint0_linear_2_9" x1="117.565" y1="61.4677" x2="30.5816" y2="148.161" gradientUnits="userSpaceOnUse">
<stop stop-color="#DEB25F"/>
<stop offset="1" stop-color="#F3CC81"/>
</linearGradient>
<radialGradient id="paint1_radial_2_9" cx="0" cy="0" r="1" gradientUnits="userSpaceOnUse" gradientTransform="translate(82.5392 94.3049) rotate(111.955) scale(46.8421 18.8419)">
<stop stop-color="#D8AE5E"/>
<stop offset="1" stop-color="#F4CD83"/>
</radialGradient>
<clipPath id="clip0_2_9">
<rect width="606" height="108" fill="white" transform="translate(30 44)"/>
</clipPath>
</defs>
</svg>
